<svg data-v-0dd9719b="" version="1.0" xmlns="http://www.w3.org/2000/svg" xmlns:xlink="http://www.w3.org/1999/xlink" width="100%" height="100%" viewBox="0 0 340.000000 250.000000" preserveAspectRatio="xMidYMid meet" color-interpolation-filters="sRGB" style="margin: auto;"> <rect data-v-0dd9719b="" x="0" y="0" width="100%" height="100%" fill="#fff" fill-opacity="1" class="background"></rect> <rect data-v-0dd9719b="" x="0" y="0" width="100%" height="100%" fill="url(#watermark)" fill-opacity="1" class="watermarklayer"></rect> <g data-v-0dd9719b="" fill="#333" class="icon-text-wrapper icon-svg-group iconsvg" transform="translate(48.86000061035156,94.87921714782715)"><g class="iconsvg-imagesvg" transform="translate(0,0)"><g><rect fill="#333" fill-opacity="0" stroke-width="2" x="0" y="0" width="60" height="60.241568690448695" class="image-rect"></rect> <svg x="0" y="0" width="60" height="60.241568690448695" filtersec="colorsb7381402656" class="image-svg-svg primary" style="overflow: visible;"><svg xmlns="http://www.w3.org/2000/svg" viewBox="-0.022575628012418747 -0.00017171353101730347 135.60479736328125 136.1513671875"><title>资源 76</title><path d="M61.44 103.29c.4-20.86 8.7-41 25.54-57.31a80.13 80.13 0 0 1 32.56-19.27 2.43 2.43 0 0 1 3.13 1.05A60.47 60.47 0 0 1 131 43c.66 1.72.37 2.54-1.53 3a58.4 58.4 0 0 0-19.92 9 61.11 61.11 0 0 0-23.28 30.05c-5.48 15.27-4.89 30.39 1.46 45.28.84 2 .41 2.7-1.64 3.24a78.1 78.1 0 0 1-16.49 2.57c-1.73.09-2.64-.34-3.29-2.14-3.04-8.47-4.88-18.53-4.87-30.71z" fill="#f58a2f"></path><path d="M40.63 51.56a83.58 83.58 0 0 1-34.39-7.34c-1.64-.73-1.8-1.41-1.1-3a80 80 0 0 1 8.37-14.44c.94-1.3 1.78-1.52 3.32-.91 26.89 10.65 55.24 2.85 73.05-20.1 1-1.29 1.77-1.52 3.3-.87a83 83 0 0 1 14.39 7.94c1.64 1.13 1.76 1.91.6 3.5C93.83 36.17 74.53 47.64 50.35 51a77 77 0 0 1-9.72.56z" fill="#00bad3"></path><path d="M48 105.46a61.2 61.2 0 0 0-15.68-18.65A60.1 60.1 0 0 0 2.74 73.9C.82 73.64 0 73 0 71a80.17 80.17 0 0 1 1.25-16.13c.26-1.34.75-1.82 2.16-1.62 18.45 2.6 34.5 10.13 47.87 23.2a2.24 2.24 0 0 1 .87 2.55 92.15 92.15 0 0 0-3.91 25.82 2.46 2.46 0 0 1-.24.64z" fill="#f05d44"></path><path d="M102.36 107.11c-.1-19.68 11.75-35.79 30-41.57 2.78-.87 3.26-.46 3.22 2.94a67.18 67.18 0 0 1-7 29.36 66.21 66.21 0 0 1-19.34 23.77c-2.8 2.14-3.2 2.07-4.42-1.32a37.67 37.67 0 0 1-2.46-13.18z" fill="#f58a2f"></path><path d="M5.88 95.62c13.19 2.91 26.9 17.91 28.27 31.14A67.48 67.48 0 0 1 5.88 95.62z" fill="#f05d44"></path><path d="M32.62 9.73A68.63 68.63 0 0 1 68 0c-5.38 7.72-25.86 13.37-35.38 9.73z" fill="#00bad3"></path></svg></svg> <!----></g></g> <g transform="translate(67,2.5767154693603516)"><g data-gra="path-name" fill-rule="" class="tp-name iconsvg-namesvg" transform="translate(0,0)"><g transform="scale(1)"><g><path d="M20.52-24.23L24.5-24.23 24.5-30.4 20.52-30.4 20.52-24.23ZM35.26-13.12L35.17-13.08 35.17-21.04 29.92-21.04Q29.92-13.47 30.09-13.32 30.27-13.17 30.66-13.17L30.66-13.17Q35.26-13.17 35.26-13.12L35.26-13.12ZM10.41-2.8L35.17-2.8 35.17-9.89 30.14-9.89Q26.55-9.89 25.52-11.02 24.5-12.16 24.5-14.83L24.5-14.83 24.5-21.04 20.47-21.04Q20.43-17.58 18.74-14.33 17.06-11.07 10.98-8.05L10.98-8.05Q10.45-8.92 9.58-10.1L9.58-10.1Q9.62-10.1 10.41-9.23L10.41-9.23 10.41-2.8ZM10.41-21.04L10.41-11.72Q12.38-12.77 13.76-15.31 15.13-17.85 15.22-21.04L15.22-21.04 10.41-21.04ZM10.41 0.44L10.41 3.02 4.9 3.02 4.9-24.23 15.27-24.23 15.27-30.4 2.62-30.4 2.62-33.81 42.61-33.81 42.61-30.4 29.92-30.4 29.92-24.23 40.86-24.23 40.86 2.93 35.17 2.93 35.17 0.44 10.41 0.44ZM68.68-8.31L68.68-8.31Q71.43-10.89 73.62-16.23L73.62-16.23 64.39-16.23Q63.08-14 61.06-11.02L61.06-11.02Q65.35-9.62 68.68-8.31ZM86.74-31.58L86.74-22.92 80.84-22.92 80.84-28.3 54.98-28.3 54.98-22.92 49.3-22.92 49.3-31.58 65.09-31.58Q64.21-33.77 63.34-35.48L63.34-35.48 68.68-36.79Q70.29-33.81 71.3-31.58L71.3-31.58 86.74-31.58ZM86.61 0L83.24 3.54Q77.29-0.39 69.81-3.63L69.81-3.63Q63.34 1.05 51.22 3.28L51.22 3.28Q50.7 2.01 49.3-0.09L49.3-0.09Q58.44-1.44 65.35-5.6L65.35-5.6Q60.76-7.48 53.93-9.84L53.93-9.84 58.22-16.23 48.29-16.23 48.29-19.55 60.19-19.55Q61.98-22.83 63.43-26.55L63.43-26.55 69.16-25.37Q68.28-23.31 66.31-19.55L66.31-19.55 87.79-19.55 87.79-16.23 79.65-16.23Q77.69-10.94 73.36-6.43L73.36-6.43Q81.89-2.84 86.61 0L86.61 0ZM103.19-26.33L111.37-26.33 111.37-29.31 103.19-29.31 103.19-26.33ZM103.19-21.22L111.37-21.22 111.37-24.1 103.19-24.1 103.19-21.22ZM103.19-15.92L111.37-15.92 111.37-18.94 103.19-18.94 103.19-15.92ZM103.19-13.25L103.19-11.99 97.59-11.99 97.59-23.8 94.96-21.74Q93.74-23.36 92.95-24.1 92.17-24.85 92.17-24.8L92.17-24.8Q95.01-26.95 97.57-30.14 100.13-33.33 101.79-36.66L101.79-36.66 107.13-35.65Q106.6-34.64 104.72-31.98L104.72-31.98 112.33-31.98Q111.37-34.56 110.84-35.48L110.84-35.48 115.57-36.83Q117.23-34.08 117.97-31.98L117.97-31.98 130.57-31.98 130.57-29.31 116.84-29.31 116.84-26.33 128.69-26.33 128.69-24.1 116.84-24.1 116.84-21.22 128.78-21.22 128.78-18.94 116.84-18.94 116.84-15.92 131.8-15.92 131.8-13.25 103.19-13.25ZM115.48-4.46L115.48 3.11 109.88 3.11 109.88-4.37Q104.15 0.04 94.26 3.02L94.26 3.02Q93.74 2.23 92.03-0.04L92.03-0.04Q99.78-1.97 107.56-6.91L107.56-6.91 92.56-6.91 92.56-9.67 109.88-9.67 109.88-12.34 115.48-12.34 115.48-9.67 132.93-9.67 132.93-6.91 117.93-6.91Q125.63-2.14 133.24-0.26L133.24-0.26Q133.37-0.44 132.67 0.52 131.97 1.49 131.23 2.8L131.23 2.8Q121.12-0.22 115.48-4.46L115.48-4.46ZM149.6-12.69L149.6 3.15 144.26 3.15 144.26-11.02 137.44-8.92 136.48-12.51Q140.06-13.43 144.26-14.61L144.26-14.61 144.26-24.45 142.38-24.45Q141.59-21 140.19-17.5L140.19-17.5Q137.92-19.42 136.21-20.25L136.21-20.25Q137.09-22.31 137.77-26.18 138.44-30.05 138.75-34.12L138.75-34.12 143.74-33.29Q143.48-30.97 142.99-27.78L142.99-27.78 144.26-27.78 144.26-36.44 149.6-36.44 149.6-27.78 153.67-27.78 153.67-24.45 149.6-24.45 149.6-16.18 154.19-17.5 154.63-14.26Q151.92-13.39 149.6-12.69L149.6-12.69ZM157.87 2.84L157.87 2.84Q156.12 1.18 154.45 0.09L154.45 0.09Q158.92-3.24 162.42-10.32 165.91-17.41 167.66-26.16L167.66-26.16 166.26-26.16Q162.9-13.43 155.02-6.08L155.02-6.08Q152.53-8.62 151.79-8.84L151.79-8.84Q154.41-10.94 157.01-15.62 159.62-20.3 161.37-26.16L161.37-26.16 159.7-26.16Q157.82-21.65 154.32-17.45L154.32-17.45Q151.79-19.77 150.74-20.3L150.74-20.3Q152.79-22.61 154.7-27.01 156.6-31.41 157.74-36.61L157.74-36.61 162.85-35.65Q162.28-33.07 161.02-29.39L161.02-29.39Q176.33-29.39 177.9-29.22L177.9-29.22 177.86-27.78Q177.16-13.34 176.41-7.09 175.67-0.83 174.49 0.39L174.49 0.39Q173.83 1.4 172.91 1.92L172.91 1.92Q171.38 2.76 167.8 2.76L167.8 2.76Q166.4 2.76 164.65 2.67L164.65 2.67Q164.56 1.09 163.82-0.79L163.82-0.79Q167.4-0.57 168.58-0.57L168.58-0.57Q170.11-0.57 171.03-7.79L171.03-7.79Q171.78-13.47 172.35-26.16L172.35-26.16 172.74-26.16Q171.08-17.58 167.62-10 164.17-2.41 157.87 2.84Z" transform="translate(-2.619999885559082, 36.83000183105469)"></path></g> <!----> <!----> <!----> <!----> <!----> <!----> <!----></g></g> <g data-gra="path-slogan" fill-rule="" class="tp-slogan iconsvg-slogansvg" fill="#333" transform="translate(5,46.37000274658203)"><rect x="0" height="1" y="3.8600001335144043" width="48.83999824523926"></rect> <rect height="1" y="3.8600001335144043" width="48.83999824523926" x="116.44000053405762"></rect> <g transform="translate(51.83999824523926,0)"><g transform="scale(1)"><path d="M7.64-8.58L4.73-4.41L7.78 0L6.33 0L3.98-3.52L1.64 0L0.23 0L3.33-4.41L0.42-8.58L1.88-8.58L4.03-5.30L6.23-8.58L7.64-8.58ZM9.05-8.58L10.22-8.58L10.22 0L9.05 0L9.05-8.58ZM12.89-5.53L12-5.53L12-8.58L12.89-8.58L12.89-5.53ZM20.11 0L19.27-2.48L15.80-2.48L14.91 0L13.73 0L16.97-8.58L18.28-8.58L21.38 0L20.11 0ZM17.53-7.31L16.17-3.52L18.84-3.52L17.58-7.31L17.53-7.31ZM23.81-8.58L28.13-1.64L28.13-8.58L29.25-8.58L29.25 0L27.94 0L23.58-6.94L23.53-6.94L23.53 0L22.41 0L22.41-8.58L23.81-8.58ZM33.66-1.92L33.66-2.77L34.73-2.77L34.73-2.16Q34.73-0.75 36.05-0.75L36.05-0.75Q37.41-0.75 37.41-2.25L37.41-2.25L37.41-8.58L38.58-8.58L38.58-2.30Q38.53 0.09 36.09 0.14L36.09 0.14Q33.80 0.09 33.66-1.92L33.66-1.92ZM40.55-8.58L41.72-8.58L41.72 0L40.55 0L40.55-8.58ZM48.47-7.13L48.42-7.13L46.45 0L45.23 0L42.98-8.58L44.20-8.58L45.84-1.59L45.89-1.59L47.81-8.58L49.08-8.58L51-1.59L51.05-1.59L52.64-8.58L53.91-8.58L51.66 0L50.44 0L48.47-7.13ZM60.66-3.19L60.66-8.58L61.83-8.58L61.83-3.05Q61.69 0.05 58.31 0.14L58.31 0.14Q55.17 0.05 55.03-2.86L55.03-2.86L55.03-8.58L56.20-8.58L56.20-3.19Q56.25-0.84 58.36-0.80L58.36-0.80Q60.66-0.84 60.66-3.19L60.66-3.19Z" transform="translate(-0.234375, 8.578125)"></path></g></g></g></g></g><defs v-gra="od"></defs></svg>